<?xml version="1.0" encoding="UTF-8" standalone="no"?>
<svg
   xmlns:dc="http://purl.org/dc/elements/1.1/"
   xmlns:cc="http://creativecommons.org/ns#"
   xmlns:rdf="http://www.w3.org/1999/02/22-rdf-syntax-ns#"
   xmlns:svg="http://www.w3.org/2000/svg"
   xmlns="http://www.w3.org/2000/svg"
   viewBox="0 0 246.44 261.88"
   height="261.88"
   width="246.44"
   xml:space="preserve"
   id="svg2"
   version="1.1"><metadata
     id="metadata8"><rdf:RDF><cc:Work
         rdf:about=""><dc:format>image/svg+xml</dc:format><dc:type
           rdf:resource="http://purl.org/dc/dcmitype/StillImage" /></cc:Work></rdf:RDF></metadata><defs
     id="defs6" /><g
     transform="matrix(1.3333333,0,0,-1.3333333,0,261.88)"
     id="g10"><g
       transform="scale(0.1)"
       id="g12"><path
         id="path14"
         style="fill:#231f20;fill-opacity:1;fill-rule:nonzero;stroke:none"
         d="m 1301.04,1811.36 c -4.1,1.93 -7.95,3.7 -11.64,5.35 -8.8,7.26 -24.44,17.89 -46.6,28.83 l -37.27,18 -29.65,13.75 -25.86,11.57 c 0,0 -13,5.64 -26,11.27 -13.07,5.47 -26.15,10.93 -26.15,10.93 l -4.03,1.66 -1.07,3.14 c -7.94,3.29 -28.48,8.76 -38.12,12.31 -28.34,10.63 -57.13,19.65 -83.232,25.42 -25.988,5.88 -49.164,8.5 -65.586,8.8 -4.715,0.49 -12.211,1.13 -23.625,1.5 -11.312,0.43 -27.043,0.4 -46.664,-1 -10.375,-0.99 -22.789,-2.52 -35.793,-4.84 -12.684,-2.36 -25.68,-5.27 -37.535,-8.62 -23.973,-6.64 -43.731,-14.44 -54.789,-19.39 -10.074,-6.2 -25.25,-12.37 -41.008,-19.43 -9.32,-1.44 -23.629,-4.8 -43.766,-12.17 -14.316,-4.29 -28.078,-9.98 -29.031,-7.73 0,0 7.641,3.62 18.41,7.74 10.727,4.22 24.641,8.75 36.504,12.04 11.86,3.31 21.613,5.48 23.645,6.3 2.066,0.66 -3.723,0.54 -22.364,-3.48 0,0 -3.734,-0.74 -7.418,-1.7 -3.683,-0.93 -7.375,-1.87 -7.375,-1.87 l -1.324,4.8 c 0,0 -3.429,-2.11 -6.746,-4.41 -3.297,-2.29 -6.594,-4.58 -6.594,-4.58 0,0 -3.66,-1.06 -7.265,-2.3 -3.598,-1.25 -7.196,-2.5 -7.196,-2.5 l -0.859,2.33 c 0.906,-2.46 0.738,-2.03 -13.336,-7.77 -7.094,-2.79 -13.965,-6.1 -20.867,-9.31 l 6.902,3.22 -1.05,2.25 c 6.949,3.25 10.503,4.69 10.386,4.96 -0.133,0.3 -3.918,-0.56 -11.441,-2.7 0.828,-1.78 0.992,-2.13 -5.91,-5.48 -1.547,-0.8 -3.84,-2 -6.77,-3.52 l -2.297,4.43 6.875,3.55 c 16.313,7.91 33.203,14.62 50.539,19.96 0,0 3.727,1.12 7.457,2.23 3.723,1.13 7.508,2.05 7.508,2.05 -0.535,1.98 -9.656,0.41 -22.469,-3.62 -12.785,-4.09 -29.015,-11.07 -43.89,-18.89 -25.168,-13.37 -45.863,-29.44 -47.137,-27.61 -11.254,-11.22 -9.66,-13.22 -21.629,-22.96 -7.879,-5.42 -15.949,-11.59 -23.015,-17.53 -6.614,-5.45 -12.547,-10.82 -18.262,-16.34 -7.613,-7.38 -14.457,-14.77 -20.824,-22.23 -1.598,-0.98 -2.875,-1.8 -3.668,-2.36 -9.77,-6.42 -36.407,-22.47 -46.004,-29.82 -5.828,-4.19 -19.555,-18.11 -25.235,-22.61 l -5.691,-4.52 c -1.879,-1.54 -1.883,-1.54 -2.188,-5.02 -5.617,-4.66 -14.746,-8.86 -20.332,-13.66 l -0.23,-3.5 c -11.086,-9.63 -14.391,-5.92 -14.781,-12.87 0,0 -4.598,-4.07 -9.129,-8.27 -4.539,-4.17 -9.082,-8.34 -9.082,-8.34 0,0 -2.266,-2.1 -4.531,-4.19 -2.235,-2.15 -4.469,-4.3 -4.469,-4.3 -1.785,-1.73 -1.785,-1.73 -3.516,0.07 l -1.836,-5.26 c 0,0 -2.445,-2.39 -6.117,-5.96 -3.684,-3.5 -8.527,-8.46 -13.352,-13.46 -9.742,-9.87 -19.082,-20.18 -19.082,-20.18 l -3.406,-3.73 c 0,0 -4.246,-4.69 -8.492,-9.37 -4.137,-4.8 -8.277,-9.6 -8.277,-9.6 l -9.868,-11.59 c -4.902,-5.85 -9.25,-15.43 -10.847,-17.38 -4.856,-5.87 -12.074,-19.58 -13.547,-21.65 -25.402,-38.21 -40.625,-68.02 -50.996,-85.79 -4.059,-6.49 -13.5,-19.09 -14.805,-21.32 0.942,-3.46 -0.289,-5.72 -1.523,-8 0,0 -0.922,-1.71 -1.844,-3.41 -0.879,-1.75 -1.758,-3.49 -1.758,-3.49 -7.863,-19.33 -13.273,-38.27 -15.894,-55.67 -0.649,-1.08 -1.301,-2.14 -1.946,-3.24 C 91.1563,1348.73 80.25,1326.4 72.8047,1309.13 65.2813,1291.79 61.2148,1280 61.2148,1280 c 0,0 -5.3046,-14.57 -9.4921,-28.64 -4.3399,-14.18 -7.6914,-27.68 -7.6914,-27.68 -5.754,-21.88 -11.7618,-55.45 -15.3477,-81.66 -3.3477,-25.01 -6.2578,-46.76 -6.8359,-51.09 C 17.8359,1056.39 9.17578,1004.55 4.34375,952.059 1.91406,925.949 0.359375,900.09 0.0664063,877.719 -0.0742188,866.539 0.0273438,856.27 0.21875,847.48 c 0.421875,-8.91 0.765625,-16.3 1.02734,-21.808 l 0.98047,-11.184 c 0,0 0.45703,-4.886 1.14063,-12.226 0.78125,-7.371 2.15625,-17.332 3.46484,-27.223 1.64453,-9.988 3.33207,-20.019 4.76567,-27.488 1.6836,-7.41 2.8086,-12.36 2.8086,-12.36 4.4531,-28.793 20.4804,-81.769 43.0351,-130.043 22.168,-48.769 50.4886,-90.738 63.9106,-113.687 42.589,-66.531 91.605,-123.992 141.871,-174.609 25.164,-25.313 50.695,-49.274 76.222,-71.922 12.782,-11.489 25.5,-22.289 38.27,-33.309 l 36.711,-30.801 12.387,-10.468 -1.61,-1.903 c 0,0 8.317,-7.027 16.629,-14.058 9.328,-7.719 18.652,-15.442 18.652,-15.442 11.754,-10.039 29.586,-25.73 59.774,-46.1677 14.996,-10.0821 33.008,-21.0899 53.738,-31.6915 10.371,-5.2382 21.309,-10.4101 32.805,-15.3398 11.051,-4.5195 20.926,-8.8398 33.621,-13.3203 24.051,-8.8906 53.976,-18.0508 87.691,-24.00782 33.61,-6.11329 69.446,-8.562505 102.403,-8.4101612 33.175,0.1093752 64.109,2.2382812 94.82,4.8085912 14.937,1.39063 30.332,2.82032 46.187,4.30078 15.637,1.61721 31.727,3.27731 48.287,4.98831 8.39,1.2187 19.11,2.4687 31.87,5 6.24,1.4219 12.93,2.9492 20.03,4.5703 6.35,1.6601 12.45,3.4687 19.14,5.4101 25.55,7.7618 50.13,17.4102 72.71,27.1211 40.38,17.211 73.15,33.3282 103.08,47.4801 14.89,7.079 28.88,13.68 41.96,19.61 6.4,2.847 12.72,5.66 18.97,8.449 l 4.56,1.988 5.75,2.602 c 5.18,2.461 10.32,4.91 15.43,7.328 20.94,9.594 38.94,20.293 56.79,30.703 8.79,5.258 16.67,10.777 24.81,16.109 8.03,5.372 16.06,10.649 23.13,16.149 14.54,10.859 28.64,21.461 40.86,32.16 6.24,5.332 12.36,10.551 18.36,15.672 5.63,5.258 11.15,10.41 16.54,15.437 54.45,51.59 89.32,95.282 113.5,126.293 24.01,31.071 37.09,49.5 40.91,52.989 3.83,3.492 16.4,19.34 35.73,48.949 9.47,14.98 20.92,33.121 33.17,55.582 6.31,11.019 12.61,23.41 19.32,36.66 1.71,3.418 3.32,6.43 5.16,10.34 1.9,4.207 3.83,8.48 5.79,12.82 3.84,8.688 7.89,17.699 11.69,26.981 8.48,22.769 12.45,34.289 10.11,35.058 0,0 1.56,2.649 3.13,5.309 1.44,2.641 2.89,5.293 2.89,5.293 l 6.73,22.808 c 0,0 1.02,5.86 2.03,11.719 0.74,5.789 1.48,11.582 1.48,11.582 0,0 1.63,7.047 4.08,17.629 2.69,10.66 4.87,24.512 7.37,38.512 2.68,14.058 3.99,27.726 5.37,38.129 0.63,5.179 1.15,9.5 1.51,12.519 0.4,3.039 0.46,4.719 0.46,4.719 0,0 1.14,15 2.85,37.52 0.36,11.113 0.78,24.089 1.23,37.98 -0.02,13.75 -0.11,28.41 -0.45,43 -0.74,14.449 -1.2,29.016 -2.29,42.441 -1.18,13.4 -2.11,25.98 -3.33,36.63 -1.3,10.62 -2.39,19.47 -3.15,25.66 -0.75,6.21 -1.27,9.72 -1.27,9.72 -1.19,7.65 -3.05,18.47 -5.27,30.85 -2.33,12.36 -5.48,26.16 -8.45,39.99 -3.4,13.75 -6.75,27.48 -9.97,39.6 -3.34,12.11 -6.25,22.66 -8.3,30.11 0,0 -0.58,2 -1.44,4.98 -0.92,3.09 -2.16,7.2 -3.4,11.31 -2.52,8.21 -5.03,16.43 -5.03,16.43 0,0 -2.8,8.04 -5.59,16.08 -2.82,8.04 -5.73,16.02 -5.73,16.02 l -8.27,20.9 c 0,0 -1.33,3.24 -3.66,8.92 -2.46,5.56 -5.98,13.51 -10.2,23.05 -4.31,9.47 -9.69,20.18 -15.37,31.78 -6.04,11.19 -12.22,23.5 -19.03,35.06 -13.26,23.58 -27.66,45.82 -38.68,62.19 -5.43,8.3 -10.25,14.79 -13.52,19.49 -3.3,4.65 -5.19,7.31 -5.19,7.31 -36.67,50.39 -69.92,88.18 -98.08,117.7 -28.07,29.45 -51.85,51.03 -70.76,67.1 -56.63,48.48 -106.66,83.09 -147.29,107.09" /><path
         id="path16"
         style="fill:#ffffff;fill-opacity:1;fill-rule:nonzero;stroke:none"
         d="m 301.168,465.32 c 0,0 -4.586,4.731 -8.875,9.821 -4.336,5.031 -8.668,10.058 -8.668,10.058 l -5.777,6.723 c 0,0 -4.301,5.047 -8.602,10.098 -4.141,5.23 -8.281,10.46 -8.281,10.46 7.433,-5.492 14.879,-10.8 20.683,-17.351 l -1.902,-1.609 7.649,-5.059 c 7.652,-5.031 13.25,-11.789 17.457,-19.793 z M 277.98,381.129 c -8.398,4.562 -27.625,25.371 -32.109,33.941 0,0 -3.187,3.45 -6.375,6.899 -3.117,3.601 -6.23,7.211 -6.23,7.211 -6.223,7.218 -8.11,5.59 -9.996,3.968 -3.125,3.633 -7.329,9.473 -11.27,15.5 -3.926,6.082 -7.391,12.711 -9.441,17.231 0,0 -3,3.793 -7.496,9.48 -2.243,2.852 -4.86,6.172 -7.665,9.731 -2.695,3.719 -5.574,7.691 -8.449,11.672 -5.715,7.976 -11.433,15.968 -15.719,21.957 -4.078,6.261 -6.8,10.429 -6.8,10.429 l -10.782,16.832 c -5.527,8.27 -8.281,18.481 -13.218,27.231 7.218,-19.152 -13.856,15.211 -35.3402,69.559 -4.9531,13.82 -11.0117,28.16 -15.2382,43.91 -4.6407,15.511 -9.4727,31.269 -12.6485,47.289 -7.9414,31.57 -11.9297,62.531 -15.2343,85.383 2.5898,0.187 3.1835,-9.973 4.6445,-20.313 1.164,10.59 4.9375,0.539 8.7539,-9.301 0,0 0.2539,-1.918 0.6992,-5.258 0.5703,-3.371 1.3828,-8.179 2.3594,-13.949 1.6445,-11.613 5.7695,-26.679 9.2031,-41.89 0.9258,-3.789 1.8516,-7.582 2.7617,-11.301 1.1367,-3.641 2.2578,-7.219 3.3399,-10.692 2.2031,-6.918 4.2578,-13.378 6.0156,-18.918 3.3828,-11.16 6.375,-18.199 6.375,-18.199 2.7499,-7.16 6.1919,-16.109 9.9769,-25.953 3.504,-10.047 8.656,-20.047 13.168,-30.558 2.355,-5.192 4.707,-10.379 7.011,-15.461 2.563,-4.868 5.067,-9.637 7.465,-14.2 4.856,-9.078 9.289,-17.371 13.063,-23.808 l 2.133,1.289 c 7.976,-12.36 15.199,-25.352 23.398,-38.93 8.5,-13.18 17,-28.332 28.109,-43.84 l 7.899,-5.98 -1.946,-1.551 c -1.953,-1.551 -1.941,-1.57 5.965,-7.527 5.907,-7.641 14.121,-12.864 20.223,-20.102 l 4.293,-8.801 c 0,0 2.629,-4 5.258,-7.988 2.711,-3.851 5.422,-7.699 5.422,-7.699 6.316,-6.832 10.855,-15.402 17.246,-22.281 -4.571,8.589 -4.559,8.578 -2.742,10.289 0,0 4.773,-5.11 9.546,-10.219 4.856,-4.922 9.707,-9.852 9.707,-9.852 l -6.472,6.571 -1.793,-1.739 z M 65.3203,1042.76 c 3.6055,16.3 7.7539,31.04 8.9922,30.82 l 3.7695,8.2 c 2.5782,-0.48 -4.4648,-42.67 -12.1992,-87.999 -2.4648,0.27 -1.4765,9.419 -0.289,18.349 -1.1446,-8.98 -3.6211,-8.68 -6.0938,-8.38 -0.6641,4.65 2.2188,22.69 5.8203,39.01 z M 85.8984,941.07 c 1.4844,20.719 3.7071,40.922 3.7071,40.922 7.3906,-0.785 3.0898,-18.48 -0.1407,-27.414 l 1.0821,-18.449 1.4297,-18.59 c -0.3399,-9.309 -0.3243,-9.301 -3.125,-18.527 l -2.625,-9.383 0.1406,9.441 -2.4922,0.059 c 0,0 0.5156,21.23 2.0234,41.941 z M 105.582,804.809 c 0,0 0.547,-5.368 1.367,-13.438 1.184,-8.043 2.285,-18.941 4.555,-29.59 2.191,-10.703 4.391,-21.39 6.035,-29.402 0.75,-4.051 1.727,-7.301 2.383,-9.578 0.648,-2.289 1.019,-3.602 1.019,-3.602 -2.371,-0.699 -2.437,-0.719 -5.261,8.582 L 111,736.66 c -2.832,11.918 -5.039,22.102 -6.68,30.66 -1.195,8.649 -1.918,15.668 -2.218,21.18 -0.262,11.012 1.023,16.012 3.48,16.309 z m 45,-196.399 c -2.144,5.039 -5.234,10.981 -8.844,17.34 -3.644,6.379 -7.601,13.289 -11.554,20.199 -3.551,7.192 -6.985,14.473 -9.735,21.352 -2.074,-0.731 4.278,-19.84 17.582,-46.039 -2.742,1.379 -6.144,5.199 -10.101,11.207 -4.121,5.883 -8.239,14.32 -12.516,24.793 -4.269,10.449 -9.344,22.558 -12.996,37.066 -1.988,7.16 -3.9844,14.731 -5.9766,22.641 -2.0625,7.89 -3.1211,16.511 -4.6719,25.23 l -4.5664,19.692 c 0,0 -0.4023,5.089 -0.6172,10.179 -0.2382,5.09 -0.4765,10.168 -0.4765,10.168 0,0 1.5859,-9.957 3.5312,-19.84 2.2774,-9.808 4.5547,-19.628 4.5547,-19.628 l 2.4258,0.582 c 0.2617,10.328 -2.7773,19.898 -7.0586,49.507 0,0 -0.6406,4.903 -1.2812,9.801 -0.6836,4.91 -1.1563,9.789 -1.1563,9.789 2.332,0.231 8.5234,-28.687 11.2852,-28.25 0,0 -0.3008,-10.019 -0.2188,-20.109 0.4258,-10.09 0.8516,-20.172 0.8516,-20.172 2.297,-9.738 4.723,-9.109 9.543,-7.879 -0.656,-10.34 3.512,-29.738 11.762,-47.758 l 4.699,1.66 c 3.238,-9.16 1.144,-9.921 -3.594,-11.703 5.949,-8.238 5.945,-8.199 8.27,-7.297 l 7.242,-18.011 c 5.945,-8.02 10.449,-16.418 12.59,-15.43 0,0 3.05,-9.172 6.097,-18.328 1.461,-4.66 3.176,-9.141 4.559,-12.442 1.336,-3.339 2.227,-5.57 2.227,-5.57 0,0 -6.086,10.199 -11.11,21.211 -5.226,10.848 -10.449,21.699 -10.449,21.699 -2.191,-0.98 1.691,-9.82 12.492,-36.91 l 16.75,-34.73 c -2.223,-1.352 -14.25,25.16 -16.422,23.949 0.453,3.012 -0.789,7.133 -3.117,12.031 z m -49.309,443.52 5.196,34.05 c 1.465,25.6 2.902,34.38 5.367,33.98 2.445,-0.41 3.512,-9.46 2.191,-17.88 l -3.945,-25.26 c 2.461,-0.36 3.77,8.01 5.086,16.44 2.457,-0.38 2.457,-0.38 1.141,-8.81 l -1.305,-8.39 c 1.894,4.05 4.148,18.65 6.855,35.65 2.68,17.02 6.149,36.98 10.082,50.26 l -4.882,0.97 c 5.523,27.22 8.3,36.84 13.132,45.47 2.391,-0.66 -0.152,-9.97 -2.308,-19.17 2.449,-0.56 2.347,-0.6 4.683,8.62 l 4.832,-1.23 2.411,9.16 c 4.918,8.48 4.968,8.45 7.359,7.76 -1.34,-4.54 -3.383,-18.71 -4.34,-31.41 -1.019,-12.72 -1.348,-24.06 -1.348,-24.06 2.458,-0.48 2.407,-0.5 4.239,8.27 l 6.39,17.12 7.266,-1.73 c 0,0 -0.402,-4.51 -0.801,-9.01 -0.336,-4.47 -0.668,-8.94 -0.668,-8.94 -2.031,-8.7 -3.445,-44.11 -8.449,-77.46 2.465,-0.39 4.914,-0.77 6.234,7.62 l 7.383,-1.16 c 1.317,8.37 2.672,16.79 0.223,17.19 3.801,8 7.703,16 6.742,24.87 7.277,24.87 7.91,15.92 3.426,-9.29 -2.875,-16.79 -1.672,-25.56 -0.543,-34.33 -3.938,-25.08 -6.531,-41.82 -11.438,-58.28 3.676,8.07 9.911,32.84 15.219,66.27 6.012,-9.52 11.418,23.84 13.949,23.37 0,0 -2.714,-16.64 -5.429,-33.29 -2.598,-16.71 -5.196,-33.41 -5.196,-33.41 -2.453,0.37 -3.773,-7.99 -4.984,-16.36 l -1.23,-8.37 1.281,-8.67 -2.297,-16.72 c -2.461,0.32 -2.512,0.33 -1.336,8.69 -2.52,0.35 -4.703,-16.425 -7.148,-16.116 1.347,-8.711 0.453,-17.067 2.917,-17.348 -1.222,-8.344 -6.683,-41.707 -7.16,-50.168 l -2.515,5.113 c 0.535,-3.312 0.789,-8.39 2.031,-13.543 -0.574,-8.429 -3.246,-16.726 -8.52,-25.097 0,0 0.485,-4.27 1.118,-8.539 0.597,-4.262 1.191,-8.524 1.191,-8.524 2.438,-8.508 5.25,-16.847 3.004,-25.359 2.379,0.121 1.859,25.359 4.527,16.973 0.336,-12.582 0.563,-20.973 0.731,-27.262 -0.028,-6.32 -0.219,-10.539 -1.071,-14.852 0,0 -0.375,4.203 -0.753,8.403 -0.239,4.211 -0.473,8.418 -0.473,8.418 -2.957,8.293 -2.961,8.351 -4.973,-0.278 0,0 0.238,-4.25 0.477,-8.5 0.383,-4.242 0.761,-8.48 0.761,-8.48 l -3.242,8.301 -5.457,8.25 c -2.613,-0.161 1.11,-17.231 -1.218,-17.43 l 2.476,0.219 c 0,0 0.625,-6.442 1.246,-12.871 0.836,-6.418 1.676,-12.84 1.676,-12.84 l 1.355,8.871 c 1.332,8.777 1.52,8.758 3.946,9.019 0,0 0.402,-4.218 1,-8.429 0.551,-4.211 1.097,-8.422 1.097,-8.422 0,0 -0.339,-2.207 -0.679,-4.41 -0.262,-2.2 -0.524,-4.411 -0.524,-4.411 0,0 0.481,-3.707 1.203,-9.289 0.539,-5.621 2.141,-12.937 3.516,-20.328 1.418,-7.39 2.836,-14.781 3.902,-20.32 1.282,-5.5 2.371,-9.102 2.371,-9.102 2.688,-10.41 5.086,-19.828 7.594,-28.359 3.059,-8.352 5.832,-15.941 8.422,-23.02 1.356,-3.531 2.66,-6.921 3.93,-10.23 1.504,-3.191 2.969,-6.301 4.398,-9.34 2.914,-6.07 5.711,-11.89 8.504,-17.719 0,0 2.707,-5.882 6.012,-11.441 3.168,-5.629 6.336,-11.262 6.336,-11.262 2.195,-8.636 -2.489,-1.418 -14.563,21.582 0,0 -4.703,9.739 -9.406,19.489 -2.414,4.851 -4.684,9.761 -6.086,13.589 -1.512,3.774 -2.523,6.282 -2.523,6.282 -1.118,-0.45 -0.184,-4.782 3.047,-14.059 1.89,-4.531 4.304,-10.312 7.296,-17.473 3.039,-7.148 6.45,-15.82 11.457,-25.488 l -2.187,-1.191 c 0,0 -3.305,5.672 -6.344,11.5 -2.867,5.929 -5.734,11.859 -5.734,11.859 -3.793,7.863 -9.871,14.742 -14.418,12.723 l 7.14,-26.281 c 0,0 2.086,-1.442 4.168,-2.891 2.028,-1.469 4.293,-2.77 4.293,-2.77 0,0 6.512,-11.578 13.028,-23.16 3.144,-5.871 6.746,-11.418 9.441,-15.578 2.68,-4.18 4.461,-6.973 4.461,-6.973 l -6.875,6.122 c -6.891,6.152 -9.059,4.91 -6.344,-3.942 0,0 -0.902,1.41 -2.257,3.531 -1.348,2.121 -3.215,4.903 -4.813,7.879 -3.312,5.883 -6.621,11.75 -6.621,11.75 -6.602,6.653 -8.84,15.731 -6.625,16.871 -4.215,7.93 -6.227,6.942 -8.512,5.77 -2.929,3.641 -2.039,-1.078 4.399,-13.059 3.277,-5.961 7.644,-13.91 13.105,-23.84 5.719,-9.75 13.231,-20.96 21.688,-34.281 l -2.063,-1.39 c -3.086,-2.11 -5.762,4.339 -10.558,14.703 -2.379,5.199 -5.372,11.308 -9.079,17.976 -3.472,6.864 -7.781,14.184 -13.328,21.524 -2.195,-1.184 0.121,-10.391 4.621,-18.364 0,0 0.446,-1.738 1.114,-4.347 0.625,-2.653 1.629,-6.063 2.714,-9.422 2.133,-6.789 4.266,-13.59 4.266,-13.59 l 7.883,-16.859 c 2.059,1.39 1.98,1.32 7.328,-6.078 l 5.32,-7.43 c -2,-1.434 -7.41,5.957 -12.648,13.508 -1.031,-0.7 -4.055,2.832 -9.945,11.429 -2.946,4.301 -6.606,9.86 -11.079,16.801 -4.367,7.031 -9.093,15.828 -14.867,25.981 l -4.578,8.168 c 0,0 -1.222,1.992 -2.203,4.152 -1.031,2.117 -2.062,4.25 -2.062,4.25 0,0 -3.848,7.969 -9.618,19.918 -1.437,2.992 -2.992,6.23 -4.632,9.66 -1.442,3.551 -2.957,7.301 -4.532,11.172 -3.101,7.758 -6.41,16.039 -9.718,24.328 -3,8.422 -5.563,17.051 -8.161,25.051 -2.488,8.039 -5.101,15.441 -6.449,22.09 -3.101,13.16 -5.168,21.941 -5.168,21.941 l 2.438,0.527 c -5.567,23.313 -7.563,42.372 -9.461,55.231 -1.508,12.891 -2.778,19.91 -3.989,19.812 1.231,19 0.793,37.457 -1.628,46.727 2.613,-0.027 2.199,9.344 3.304,36.672 -5,0.262 -7.7888,-8.86 -8.0896,-18.059 l -4.3516,18.641 c 4.8086,45.906 7.1092,81.137 -1.6914,91.258 -1.414,9.28 7.1954,34.72 8.4996,43.25 z m 94.18,97.41 c 2.445,-0.49 0.801,-8.79 -0.703,-17.13 -2.437,0.43 -0.961,8.8 0.703,17.13" /><path
         id="path18"
         style="fill:#231f20;fill-opacity:1;fill-rule:nonzero;stroke:none"
         d="m 129.559,844.27 0.097,0.468 c -0.761,-0.5 -1.676,-0.558 -2.59,-0.609 l 2.493,0.141" /><path
         id="path20"
         style="fill:#231f20;fill-opacity:1;fill-rule:nonzero;stroke:none"
         d="m 170.938,691.578 c -0.868,1.363 -1.79,2.731 -2.817,4.094 -1.891,-0.703 -0.68,-0.363 2.817,-4.094" /><path
         id="path22"
         style="fill:#231f20;fill-opacity:1;fill-rule:nonzero;stroke:none"
         d="m 165.73,939.629 1.825,-3.688 c -0.36,2.188 -0.836,3.618 -1.825,3.688" /><path
         id="path24"
         style="fill:#231f20;fill-opacity:1;fill-rule:nonzero;stroke:none"
         d="m 165.508,1008.05 -5.598,-25.066 c -4.39,-16.707 -7.285,-42.304 -8.523,-76.843 -2.817,-8.512 -3.047,-17.223 -2.891,-34.621 l -2.492,-0.032 c 0.195,-13.097 1.269,-21.816 2.574,-27.218 1.242,-5.399 2.606,-7.481 3.848,-7.391 0,0 -0.367,6.5 -0.735,13 -0.453,6.512 -0.503,13 -0.503,13 4.976,0.152 7.468,0.199 4.777,8.75 2.32,8.633 2.48,8.601 -0.063,8.601 l -2.433,8.629 c 2.601,8.582 5.105,17.11 9.148,42.469 l -1.851,8.684 0.672,8.468 c 0,0 3.082,12.52 6.167,25.047 3.247,12.461 6.708,24.817 6.708,24.817 l -4.02,26.236 c -1.172,-8.42 -2.344,-16.85 -4.785,-16.53" /><path
         id="path26"
         style="fill:#231f20;fill-opacity:1;fill-rule:nonzero;stroke:none"
         d="m 108.777,1068.31 -1.375,-26.08 c 2.512,17.25 3.844,25.69 1.375,26.08" /><path
         id="path28"
         style="fill:#231f20;fill-opacity:1;fill-rule:nonzero;stroke:none"
         d="m 129.656,844.738 c 1.321,0.84 2.199,2.981 1.883,8.66 l -1.883,-8.66" /><path
         id="path30"
         style="fill:#231f20;fill-opacity:1;fill-rule:nonzero;stroke:none"
         d="m 130.879,826.211 c 0,0 0.848,-11.289 2.488,-22.602 0.707,-5.648 1.477,-11.3 2.278,-15.531 0.726,-4.226 1.21,-7.047 1.21,-7.047 0,0 0.391,-2.261 0.778,-4.511 0.347,-2.27 0.883,-4.5 0.883,-4.5 -1.774,9.011 -0.715,18.48 6.625,19.609 0,0 -0.805,4.422 -1.321,8.871 -0.578,4.43 -1.156,8.871 -1.156,8.871 l -2.469,-0.301 -3.773,-9.609 -1.176,9 c -1.293,8.969 -1.789,17.957 -4.367,17.75" /><path
         id="path32"
         style="fill:#231f20;fill-opacity:1;fill-rule:nonzero;stroke:none"
         d="m 108.613,943.961 c 1.328,17.957 2.442,26.711 -0.105,27 -2.625,-26.68 -2.977,-35.859 0.105,-27" /><path
         id="path34"
         style="fill:#231f20;fill-opacity:1;fill-rule:nonzero;stroke:none"
         d="m 71.707,1056.3 c -2.582,-17.31 -3.7539,-26.34 -2.4961,-35.51 3.5938,26.62 4.9844,35.1 2.4961,35.51" /><path
         id="path36"
         style="fill:#231f20;fill-opacity:1;fill-rule:nonzero;stroke:none"
         d="m 141.23,862.602 -2.699,8.777 -2.277,-8.918 2.75,-8.742 2.226,8.883" /><path
         id="path38"
         style="fill:#231f20;fill-opacity:1;fill-rule:nonzero;stroke:none"
         d="m 177.074,679.988 3.332,-8.289 c 2.289,0.992 4.567,1.981 1.274,10.192 l -7.914,6.347 c -1.078,1.422 -2,2.461 -2.828,3.34 3.898,-6.078 6.136,-11.59 6.136,-11.59" /><path
         id="path40"
         style="fill:#231f20;fill-opacity:1;fill-rule:nonzero;stroke:none"
         d="m 171.664,715.801 c -5.047,7.64 -7.43,6.929 -9.805,6.179 2.731,-8.589 10.137,-15.41 9.805,-6.179" /><path
         id="path42"
         style="fill:#231f20;fill-opacity:1;fill-rule:nonzero;stroke:none"
         d="m 152.523,792.809 c -1.234,-0.2 -2.089,-2.579 -2.253,-7.118 -0.235,-4.55 0.304,-11.261 2.488,-19.91 2.504,0.559 2.484,9.571 -0.235,27.028" /><path
         id="path44"
         style="fill:#231f20;fill-opacity:1;fill-rule:nonzero;stroke:none"
         d="m 149.605,1001.48 c 3.524,8.23 4.696,16.7 5.887,25.18 l 4.985,33.74 -2.332,17.54 c -3.715,-7.97 -7.825,-33.15 -12.387,-67.28 1.371,-8.88 1.375,-8.87 3.847,-9.18" /><path
         id="path46"
         style="fill:#231f20;fill-opacity:1;fill-rule:nonzero;stroke:none"
         d="m 144.836,958.59 c 0.84,8.625 1.68,17.246 -0.754,17.504 l -0.883,-8.629 c -0.847,-8.645 -0.847,-8.645 1.637,-8.875" /><path
         id="path48"
         style="fill:#231f20;fill-opacity:1;fill-rule:nonzero;stroke:none"
         d="m 107.18,842.988 c 2.465,0.141 4.597,-18.437 8.601,-39.308 1.813,-10.442 4.418,-21.418 6.856,-30.871 2.742,-9.379 5.683,-17.168 7.922,-21.45 -0.055,-4.828 1.839,-14.097 4.738,-21.789 3.058,-7.648 6.367,-13.949 7.551,-13.57 l 4.367,10.949 c 0,0 -0.762,4.551 -1.52,9.102 -0.457,4.629 -0.914,9.25 -0.914,9.25 -2.414,-0.629 -2.426,-0.59 -2.687,-10.242 l -2.403,-0.661 c 0.25,9.704 0.27,9.633 -4.289,18.102 l -2.425,-0.57 c 0.265,4.871 -1.039,14.109 -2.473,25.629 -1.512,11.543 -3.488,25.211 -6.227,38.82 l -1.66,18.332 c 2.485,0.18 3.594,2.539 3.582,8.23 -0.07,5.688 -1.16,14.7 -2.605,28.219 7.32,0.149 7.453,17.969 -0.067,9.031 0,0 -1.203,6.77 -2.406,13.539 -1.047,6.77 -2.094,13.54 -2.094,13.54 2.52,-0.09 2.539,8.968 4.485,35.558 l 3.179,8.59 1.641,17.547 c 4.973,-0.504 7.395,-0.742 5.848,8.199 l -7.434,0.809 c 1.008,8.707 4.414,17.105 5.563,25.697 -2.45,0.29 -3.903,9.32 -2.672,17.89 1.191,8.58 1.191,8.59 -2.465,0.33 0,0 -1.074,-13.03 -2.145,-26.077 -0.922,-13.137 -1.656,-26.348 -1.656,-26.348 l -2.473,0.25 c -3.312,-8.586 -3.418,-8.555 -4.136,-17.453 2.484,-0.211 4.961,-0.41 1.785,-9.051 -0.742,-8.832 -5.07,-35.563 -4.984,-63.031 -4.868,-18.34 -6.965,-27.84 -6.383,-37.192" /><path
         id="path50"
         style="fill:#ffffff;fill-opacity:1;fill-rule:nonzero;stroke:none"
         d="m 1308.36,1328.5 h -114.65 c -35.89,0 -40.28,-4.43 -81.88,-46.32 C 1090.9,1261.16 745.672,913.469 745.672,913.469 v 580.251 c 0,19.49 -10.649,30.22 -30.207,30.22 H 539.934 c -19.563,0 -30.227,-10.73 -30.227,-30.22 v -78.01 c 0,-19.69 10.664,-30.36 30.227,-30.36 h 64.218 V 669.66 h -63.89 c -19.543,0 -30.207,-10.66 -30.207,-30.148 v -78.043 c 0,-19.559 10.664,-30.571 30.207,-30.571 H 808.75 c 19.578,0 30.313,10.661 30.313,30.223 v 78.078 c 0,19.692 -10.735,30.461 -30.313,30.461 h -63.078 v 57.891 L 883.152,867.18 1125.18,571.34 c 31.83,-40.442 31.83,-40.442 78.41,-40.442 h 104.54 c 19.44,0 30.14,10.661 30.14,30.223 v 78.078 c 0,19.563 -10.7,30.192 -30.14,30.192 h -86.2 L 981.148,966.543 1201.21,1189.64 h 107.15 c 19.87,0 30.24,9.79 30.24,29.08 v 79.49 c 0,19.56 -10.71,30.29 -30.24,30.29" /></g></g></svg>