<svg xmlns="http://www.w3.org/2000/svg" xmlns:xlink="http://www.w3.org/1999/xlink" version="1.1" id="Layer_1" x="0px" y="0px" viewBox="0 0 655.1 548.2" enable-background="new 0 0 655.1 548.2" xml:space="preserve">
<g>
	<path fill="#FFFFFF" d="M576.6,26c-7.9,0-19.4,6.3-24.9,15l-0.7-6.8c-0.6-3.3-3.5-6.1-7.4-6.1h-10.2c-3.3,0-6.3,2.8-6.3,6.3v98.4   c0,3.5,3,6.3,6.3,6.3h13.7c3.5,0,6.3-2.8,6.3-6.3V64.4c5.2-7.9,14.4-12.6,23.1-12.6c3,0,5.2-1.8,5.2-5V31   C581.6,27.9,579.8,26,576.6,26z"/>
	<path fill="#FFFFFF" d="M650.1,225.1c-7.9,0-19.4,6.3-24.9,15l-0.7-6.8c-0.6-3.3-3.5-6.1-7.4-6.1h-10.2c-3.3,0-6.3,2.8-6.3,6.3   v98.4c0,3.5,3,6.3,6.3,6.3h13.7c3.5,0,6.3-2.8,6.3-6.3v-68.3c5.2-7.9,14.4-12.6,23.1-12.6c3,0,5.2-1.8,5.2-5v-15.9   C654.9,226.7,653.2,225.1,650.1,225.1z"/>
	<path fill="#FFFFFF" d="M201.8,403.6c-7.9,0-19.4,6.3-24.9,15l-0.7-6.8c-0.6-3.3-3.5-6.1-7.4-6.1h-10.2c-3.3,0-6.3,2.8-6.3,6.3   v98.4c0,3.5,3,6.3,6.3,6.3h13.7c3.5,0,6.3-2.8,6.3-6.3V442c5.2-7.9,14.4-12.6,23.1-12.6c3,0,5.2-1.8,5.2-5v-15.9   C206.6,405.5,204.9,403.6,201.8,403.6z"/>
	<path fill="#FFFFFF" d="M378.3,338.1c-3.3,0-6.3-2.8-6.3-6.3V195.7c0-3.5,3-6.3,6.3-6.3H392c3.5,0,6.3,2.8,6.3,6.3v136.1   c0,3.5-2.8,6.3-6.3,6.3H378.3z"/>
	<g>
		<g>
			<path fill="#FFFFFF" d="M0,504.8c0-10.2,5.9-14.4,15-14.4c9.2,0,15.3,4.4,15.3,14.4c0,9.6-5.9,14-15.3,14     C5.9,518.8,0,514.4,0,504.8z"/>
		</g>
	</g>
	<path fill="#FFFFFF" d="M46.7,445c0,0.2,0,0.4,0,0.6V445L46.7,445z"/>
	<path fill="#FFFFFF" d="M110.4,472.9c0-0.2,0-0.2,0-0.4v2.2c0,0.4,0,0.9,0,1.5V472.9z"/>
	<g>
		<path fill="#FFFFFF" d="M322.6,28.1h-22.2V6.6c0-3.5-2.8-6.3-6.3-6.3h-9.8c-3.5,0-6.8,2.8-7.2,6.3l-2,21.4h-5.5    c-3.3,0-6.1,2.8-6.1,6.3v7.2c0,3.5,2.8,6.3,6.1,6.3h53c3.5,0,6.3-2.8,6.3-6.3v-7.2C328.8,30.8,326.1,28.1,322.6,28.1z"/>
		<path fill="#FFFFFF" d="M330.9,124.8v8.5c0,3.3-2.8,6.8-6.3,7.2c-4.1,0.6-8.5,0.7-12.6,0.7c-26.2,0-38-13.7-38-39.7V61.5    c0-3.1,2.6-5.7,5.7-5.7h14.8c3.1,0,5.7,2.6,5.7,5.7v39.9c0,13.1,5,19,16.2,19c2.8,0,5.7-0.2,8.5-0.6    C328.5,119.5,330.9,121.7,330.9,124.8z"/>
	</g>
	<g>
		<g>
			<g>
				<g>
					<path fill="#FFFFFF" d="M397.9,28.1h-21.4l-0.7-21.4c0-3.5-2.8-6.3-6.3-6.3h-10c-3.5,0-6.8,2.8-7.2,6.3l-2,21.4h-5.5       c-3.3,0-6.1,2.8-6.1,6.3v7.2c0,3.5,2.8,6.3,6.1,6.3h53c3.5,0,6.3-2.8,6.3-6.3v-7.2C404.2,30.8,401.4,28.1,397.9,28.1z"/>
				</g>
			</g>
			<g>
				<path fill="#FFFFFF" d="M406.9,124.8v8.5c0,3.3-2.8,6.8-6.3,7.2c-4.1,0.6-8.5,0.7-12.6,0.7c-26.2,0-38-13.7-38-39.7V61.5      c0-3.1,2.6-5.7,5.7-5.7h14.8c3.1,0,5.7,2.6,5.7,5.7v39.9c0,13.1,5,19,16.2,19c2.8,0,5.7-0.2,8.5-0.6      C404.5,119.5,406.9,121.7,406.9,124.8z"/>
			</g>
		</g>
	</g>
	<path fill="#FFFFFF" d="M136.8,476.9v0.9l0,0C136.8,477.5,136.8,477.1,136.8,476.9z"/>
	<g>
		<g>
			<g>
				<g>
					<path fill="#FFFFFF" d="M472.1,227.1H450v-21.4c0-3.5-2.8-6.3-6.3-6.3h-9.8c-3.5,0-6.8,2.8-7.2,6.3l-2,21.4h-5.5       c-3.3,0-6.1,2.8-6.1,6.3v7.2c0,3.5,2.8,6.3,6.1,6.3h53c3.5,0,6.3-2.8,6.3-6.3v-7.2C478.4,229.9,475.6,227.1,472.1,227.1z"/>
				</g>
			</g>
			<g>
				<path fill="#FFFFFF" d="M480.4,323.9v8.5c0,3.3-2.8,6.8-6.3,7.2c-4.1,0.6-8.5,0.7-12.6,0.7c-26.2,0-38-13.7-38-39.7v-40.1      c0-3.1,2.6-5.7,5.7-5.7H444c3.1,0,5.7,2.6,5.7,5.7v39.9c0,13.1,5,19,16.2,19c2.8,0,5.7-0.2,8.5-0.6      C478,318.5,480.4,320.5,480.4,323.9z"/>
			</g>
		</g>
	</g>
	<g>
		<path fill="#FFFFFF" d="M129.2,68.9c9-5.4,13.8-16.6,13.8-25.1v-5.9c0-9.6-2.4-17.4-7.2-23.3c-1.7-2.2-5-2.4-6.8-0.4l-13.3,14.4    c-1.1,1.3-1.7,3-1.3,4.6c0.6,2,0.7,4.6,0.7,7.4v1.5c0,12.7-5.4,18.3-13.3,18.3H85.1c-3.1,0-5.7,2.6-5.7,5.7v9    c0,3.1,2.6,5.7,5.7,5.7h18.6c9.6,0,14.6,6.5,14.6,16.4v3.7c0,9-5,15.7-16.6,15.7H71.5V22.5h26c3.1,0,5.9,0.4,8.1,0.9    c1.8,0.6,4.1,0,5.4-1.5l10.5-11.4c2.2-2.4,1.1-6.3-1.8-7.2C113.4,1.1,105.8,0,97.1,0H50.2c-3.5,0-6.3,2.8-6.3,6.3v126.1    c0,3.5,2.8,6.3,6.3,6.3h52.1c29.9,0,43.8-15.1,43.8-35.6v-7C146,83.8,138.3,72.9,129.2,68.9z"/>
	</g>
	<path fill="#FFFFFF" d="M226.2,71.5v-2.8c0-14.2-6.3-21.8-18.6-21.8c-12,0-19,7.4-19,22.2v29.4c0,15.1,6.8,21.8,19,21.8   c13.3,0,18.1-8.1,18.1-13.8c0-3.5,2-5.4,5.7-5.4h15c3.3,0,5.5,2.4,5.5,5.9c0,15.1-15.3,34.2-44.1,34.2c-27.9,0-45.2-15.9-45.2-41.9   V67.8c0-26,17.2-41.9,45.2-41.9c27.5,0,44.9,15.9,44.9,41.9v15c0,3.3-2.8,6.1-6.1,6.1h-44.7c-2.8,0-5.2-2.4-5.2-5.4V77   c0-3,2.4-5.5,5.2-5.5H226.2z"/>
	<path fill="#FFFFFF" d="M482.1,71.5v-2.8c0-14.2-6.3-21.8-18.6-21.8c-12,0-19,7.4-19,22.2v29.4c0,15.1,6.8,21.8,19,21.8   c13.3,0,18.1-8.1,18.1-13.8c0-3.5,2-5.4,5.7-5.4h15c3.3,0,5.5,2.4,5.5,5.9c0,15.1-15.3,34.2-44.1,34.2c-27.9,0-45.2-15.9-45.2-41.9   V67.8c0-26,17.2-41.9,45.2-41.9c27.5,0,44.9,15.9,44.9,41.9v15c0,3.3-2.8,6.1-6.1,6.1h-44.7c-2.8,0-5.2-2.4-5.2-5.4V77   c0-3,2.4-5.5,5.2-5.5H482.1z"/>
	<g>
		<path fill="#FFFFFF" d="M77.2,275.8l13.5-14.4c1.8-2,0.7-5.4-2-5.7c-1.1-0.2-1.8-0.2-2-0.4c-10.7-1.8-19-5.9-19-18.1    c0-10.5,7-18.5,21.4-18.5c16.4,0,22.5,11.6,22.7,20.5c0,3.1,2.6,5.9,5.7,5.9h15.5c3.5,0,5.9-2.8,5.9-6.1c0-22-15.7-42.8-49.9-42.8    c-33.6,0-48.6,17-48.6,40.1v4.2c0,21.6,14,31.9,31.8,36.7C74,277.9,75.9,277.3,77.2,275.8z"/>
		<path fill="#FFFFFF" d="M102.5,260.2l-13.7,14.8c-1.8,2-0.7,5.4,2,5.7l1.1,0.2c12.9,1.7,22.3,5.9,22.3,17.2    c0,11.8-8.1,19.9-23.6,19.9c-16.4,0-25.8-12.2-25.8-20.9c0-3.1-2.6-5.7-5.7-5.7H43.4c-3.3,0-5.9,2.6-5.9,5.9    c-0.2,23.6,19.4,43.2,53.2,43.2s50.8-16.2,50.8-40.8v-4.8c0-21.8-16.1-31.8-34.3-36C105.4,258.3,103.8,258.9,102.5,260.2z"/>
	</g>
	<path fill="#FFFFFF" d="M555.6,270.5v-2.8c0-14.2-6.3-21.8-18.6-21.8c-12,0-19,7.4-19,22.2v29.4c0,15.1,6.8,21.8,19,21.8   c13.3,0,18.1-8.1,18.1-13.8c0-3.5,2-5.4,5.7-5.4h15c3.3,0,5.5,2.4,5.5,5.9c0,15.1-15.3,34.2-44.1,34.2c-27.9,0-45.2-15.9-45.2-41.9   v-31.4c0-26,17.2-41.9,45.2-41.9c27.5,0,44.9,15.9,44.9,41.9v15c0,3.3-2.8,6.1-6.1,6.1h-44.7c-2.8,0-5.2-2.4-5.2-5.4v-6.6   c0-3,2.4-5.5,5.2-5.5h24.4V270.5z"/>
	<path fill="#FFFFFF" d="M327.7,270.5v-2.8c0-14.2-6.3-21.8-18.6-21.8c-12,0-19,7.4-19,22.2v29.4c0,15.1,6.8,21.8,19,21.8   c13.3,0,18.1-8.1,18.1-13.8c0-3.5,2-5.4,5.7-5.4h15c3.3,0,5.5,2.4,5.5,5.9c0,15.1-15.3,34.2-44.1,34.2c-27.9,0-45.2-15.9-45.2-41.9   v-31.4c0-26,17.2-41.9,45.2-41.9c27.5,0,44.9,15.9,44.9,41.9v15c0,3.3-2.8,6.1-6.1,6.1h-44.7c-2.8,0-5.2-2.4-5.2-5.4v-6.6   c0-3,2.4-5.5,5.2-5.5h24.4V270.5z"/>
	<path fill="#FFFFFF" d="M118.9,419.5l-11.4,12.4c-1.3,1.5-1.8,3.5-1.3,5.5c0.9,3,1.5,6.6,1.5,10.7v27c0,15.1-6.5,23.1-18.5,23.1   c-12.2,0-18.8-7.9-18.8-23.1v-27c0-15.1,6.8-23.1,18.8-23.1c2.8,0,5.4,0.4,7.6,1.3c2.2,0.9,4.8,0.6,6.5-1.3l8.9-9.6   c2.2-2.4,1.5-6.3-1.5-7.4c-6.1-2.6-13.3-4.1-21.4-4.1c-28.1,0-45.2,15.9-45.2,41.9v31.4c0,26,17.4,41.9,45.2,41.9   c27.5,0,44.9-15.9,44.9-41.9v-31.4c0-10.3-2.8-19-7.8-25.8C124.4,417.5,120.9,417.3,118.9,419.5z"/>
	<g>
		<g>
			<path fill="#FFFFFF" d="M183.5,195.5c0-3.5-2.8-6.3-6.3-6.3h-13.7c-3.3,0-6.3,2.8-6.3,6.3v136.3c0,3.5,3,6.3,6.3,6.3h13.7     c3.5,0,6.3-2.8,6.3-6.3V195.5z"/>
			<path fill="#FFFFFF" d="M209.6,224.9c-5.5,0-10.9,1.5-15.7,3.7c-1.7,0.7-2.6,2.4-2.6,4.2v10.3c0,3.1,3.1,5.5,6.3,4.4     c2-0.7,4.1-0.9,6.3-0.9c11.3,0,15.5,5.5,15.5,18.3v66.8c0,3.5,2.8,6.3,6.1,6.3h13.8c3.3,0,6.3-2.8,6.3-6.3v-69.1     C245.4,238.7,235.4,224.9,209.6,224.9z M194.4,228.4L194.4,228.4c0.2-0.2,0.4-0.2,0.6-0.2c0,0,0.2,0,0.2-0.2l0,0     c0.2,0,0.4-0.2,0.4-0.2C195.3,228,194.8,228.2,194.4,228.4z"/>
		</g>
	</g>
	<path fill="#FFFFFF" d="M302.6,405.6h-10.3c-3.5,0-7,2.8-7.6,6.1l-0.6,4.4c-6.3-6.6-16.8-12.6-28.1-12.6c-26,0-36,13.8-36,40.1   v24.4c0,26.2,10.2,39.7,36,39.7c5.5,0,10.9-1.3,15.9-3.5c1.8-0.7,3-2.6,3-4.6v-11.4c0-2.8-2.8-4.6-5.4-3.7c-2.4,0.9-5,1.3-7.4,1.3   c-11.4,0-15.7-5.9-15.7-19.8v-20.5c0-14,4.2-20.1,15.7-20.1c7.6,0,15.5,4.6,20.5,10.3v73.5c0,13.7-7.6,19-18.1,19   c-10.3,0-15.9-3.7-17.2-8.1c-1.5-2.4-3.3-5.4-7.4-5.4h-12.6c-3.3,0-5.9,2.6-5.9,6.1c0,13.8,13.3,27.3,43,27.3   c27.1,0,44.3-12.7,44.3-37.9v-98.4C308.7,408.4,305.9,405.6,302.6,405.6z"/>
</g>
<div xmlns="" id="divScriptsUsed" style="display: none"/><script xmlns="" id="globalVarsDetection" src="chrome-extension://cmkdbmfndkfgebldhnkbfhlneefdaaip/js/wrs_env.js"/></svg>